<svg width="23.625000" height="16.875000" viewBox="0 0 23.625 16.875" fill="none" xmlns="http://www.w3.org/2000/svg" xmlns:xlink="http://www.w3.org/1999/xlink">
	<desc>
			Created with Pixso.
	</desc>
	<defs/>
	<path id="Vector" d="M21.9375 0L1.6875 0C1.23975 0 0.810547 0.177734 0.494141 0.494141C0.177734 0.810791 0 1.23999 0 1.6875L0 15.1875C0 15.635 0.177734 16.0642 0.494141 16.3809C0.810547 16.6973 1.23975 16.875 1.6875 16.875L21.9375 16.875C22.3853 16.875 22.8145 16.6973 23.1309 16.3809C23.4473 16.0642 23.625 15.635 23.625 15.1875L23.625 1.6875C23.625 1.23999 23.4473 0.810791 23.1309 0.494141C22.8145 0.177734 22.3853 0 21.9375 0ZM20.0811 1.6875L11.8125 7.4082L3.54395 1.6875L20.0811 1.6875ZM1.6875 15.1875L1.6875 2.45532L11.3315 9.12939C11.4727 9.22729 11.6406 9.27979 11.8125 9.27979C11.9844 9.27979 12.1523 9.22729 12.2935 9.12939L21.9375 2.45532L21.9375 15.1875L1.6875 15.1875Z" fill="#FFFFFF" fill-opacity="1.000000" fill-rule="nonzero"/>
</svg>
