<svg width="29.000000" height="29.000000" viewBox="0 0 29 29" fill="none" xmlns="http://www.w3.org/2000/svg" xmlns:xlink="http://www.w3.org/1999/xlink">
	<desc>
			Created with Pixso.
	</desc>
	<defs/>
	<path id="Vector" d="M9.14258 27.4343C7.44385 26.7307 5.90039 25.6995 4.60059 24.3994C3.30029 23.0994 2.26904 21.5562 1.56592 19.8577C0.862305 18.1589 0.5 16.3386 0.5 14.5C0.5 12.6614 0.862305 10.8411 1.56592 9.14233C2.26904 7.44385 3.30029 5.90063 4.60059 4.60059C5.90039 3.30054 7.44385 2.26929 9.14258 1.56567C10.8408 0.862061 12.6616 0.5 14.5 0.5C18.2129 0.5 21.7739 1.9751 24.3994 4.60059C27.0249 7.22607 28.5 10.7869 28.5 14.5C28.5 18.2131 27.0249 21.7739 24.3994 24.3994C21.7739 27.0249 18.2129 28.5 14.5 28.5C12.6616 28.5 10.8408 28.1379 9.14258 27.4343ZM14.5 28.5L14.5 12.5C14.5 11.4392 14.9214 10.4216 15.6714 9.67163C16.4219 8.92139 17.439 8.5 18.5 8.5L19.5 8.5M9.5 16.5L19.5 16.5" stroke="#FFFFFF" stroke-opacity="1.000000" stroke-width="1.000000"/>
</svg>
