<svg width="17.414551" height="19.982666" viewBox="0 0 17.4146 19.9827" fill="none" xmlns="http://www.w3.org/2000/svg" xmlns:xlink="http://www.w3.org/1999/xlink">
	<desc>
			Created with Pixso.
	</desc>
	<defs/>
	<path id="Vector" d="M2.55029 2.55029C4.18359 0.91748 6.39795 0 8.70752 0C11.0166 0 13.2314 0.91748 14.8643 2.55029C16.4976 4.18335 17.4146 6.39795 17.4146 8.70728C17.4146 11.0166 16.4976 13.2314 14.8643 14.8643L13.6772 16.0383C12.8022 16.8962 11.6675 18.0002 10.2715 19.3503C9.85205 19.7561 9.29102 19.9827 8.70752 19.9827C8.12402 19.9827 7.56299 19.7561 7.14355 19.3503L3.65234 15.9543C3.2124 15.5232 2.84668 15.1604 2.55029 14.8643C1.7417 14.0557 1.10059 13.0959 0.662598 12.0396C0.225098 10.9832 0 9.85083 0 8.70728C0 7.56372 0.225098 6.43164 0.662598 5.37524C1.10059 4.3186 1.7417 3.35889 2.55029 2.55029ZM13.8032 3.61035C13.1343 2.94092 12.3394 2.41016 11.4648 2.04785C10.5903 1.68579 9.65332 1.49927 8.70654 1.49951C7.76025 1.49951 6.82275 1.68604 5.94824 2.04834C5.07373 2.4104 4.2793 2.94141 3.60986 3.61084C2.94043 4.28027 2.40967 5.07471 2.04736 5.94922C1.68555 6.82373 1.49902 7.76123 1.49902 8.70776C1.49902 9.6543 1.68555 10.5916 2.04785 11.4661C2.41016 12.3406 2.94092 13.135 3.61035 13.8042L5.09863 15.2722C5.9165 16.0732 6.94629 17.0732 8.18652 18.2722C8.32617 18.4072 8.51318 18.4829 8.70752 18.4829C8.90186 18.4829 9.08838 18.4072 9.22852 18.2722L12.6235 14.9724C13.0933 14.5112 13.4863 14.1223 13.8032 13.8042C15.1548 12.4526 15.9141 10.6196 15.9141 8.70825C15.9141 6.79688 15.1548 4.96387 13.8032 3.6123L13.8032 3.61035ZM8.70752 5.9812C9.10156 5.9812 9.49219 6.05908 9.85645 6.20972C10.2207 6.3606 10.5513 6.58179 10.8301 6.8606C11.1089 7.1394 11.3301 7.47021 11.481 7.83447C11.6318 8.19873 11.7095 8.58911 11.7095 8.9834C11.7095 9.37744 11.6318 9.76782 11.481 10.1321C11.3301 10.4963 11.1089 10.8274 10.8301 11.106C10.5513 11.3848 10.2207 11.606 9.85645 11.7568C9.49219 11.9077 9.10156 11.9854 8.70752 11.9854C7.9209 11.9709 7.17139 11.6484 6.62012 11.0872C6.06885 10.5259 5.76025 9.77051 5.76025 8.98389C5.76025 8.19702 6.06885 7.44189 6.62012 6.88062C7.17139 6.31909 7.9209 5.99658 8.70752 5.98242L8.70752 5.9812ZM8.70752 7.48242C8.30908 7.48242 7.92725 7.64062 7.64551 7.92212C7.36377 8.20386 7.20557 8.58594 7.20557 8.98438C7.20557 9.38257 7.36377 9.76465 7.64551 10.0464C7.92725 10.3281 8.30908 10.4863 8.70752 10.4863C9.09912 10.4763 9.47119 10.3135 9.74414 10.0332C10.0176 9.75269 10.1709 9.37646 10.1709 8.98486C10.1709 8.59326 10.0176 8.21704 9.74414 7.93652C9.47119 7.65601 9.09912 7.49341 8.70752 7.4834L8.70752 7.48242Z" fill="#FFFFFF" fill-opacity="1.000000" fill-rule="nonzero"/>
</svg>
