<svg width="18.000000" height="20.000000" viewBox="0 0 18 20" fill="none" xmlns="http://www.w3.org/2000/svg" xmlns:xlink="http://www.w3.org/1999/xlink">
	<desc>
			Created with Pixso.
	</desc>
	<defs/>
	<path id="Vector" d="M12.0737 11.748C12.9844 12.054 13.8047 12.4805 14.5347 13.0273C15.2646 13.5742 15.8872 14.2122 16.4028 14.9414C16.9185 15.6707 17.3135 16.4617 17.5884 17.3145C17.8628 18.1672 18 19.0625 18 20L16.7144 20C16.7144 18.9324 16.52 17.9426 16.1318 17.0312C15.7432 16.1199 15.2007 15.3254 14.5044 14.6484C13.8081 13.9714 12.9946 13.4473 12.0635 13.0762C11.1328 12.7051 10.1118 12.5129 9 12.5C8.28369 12.5 7.59375 12.5879 6.93066 12.7637C6.26807 12.9395 5.65186 13.1868 5.08252 13.5059C4.51318 13.825 3.99463 14.2122 3.52588 14.668C3.05713 15.1238 2.65869 15.6282 2.33057 16.1816C2.00244 16.7351 1.74463 17.3372 1.55713 17.9883C1.36963 18.6394 1.27881 19.3098 1.28564 20L0 20C0 19.0625 0.140625 18.1672 0.421875 17.3145C0.703125 16.4617 1.10156 15.6738 1.61719 14.9512C2.13281 14.2285 2.75537 13.5969 3.48535 13.0566C4.21533 12.5164 5.03564 12.0833 5.94629 11.7578C5.42432 11.4844 4.95557 11.1523 4.54004 10.7617C4.125 10.3711 3.77344 9.93823 3.48535 9.46289C3.19775 8.98755 2.97314 8.47656 2.8125 7.92969C2.65186 7.38281 2.57129 6.823 2.57129 6.25C2.57129 5.38403 2.73877 4.57349 3.07373 3.81836C3.40869 3.06323 3.86719 2.39917 4.44971 1.82617C5.03223 1.25317 5.71191 0.807373 6.48877 0.488281C7.26562 0.169189 8.10254 0.0065918 9 0C9.89062 0 10.7241 0.162842 11.501 0.488281C12.2778 0.813721 12.9609 1.25977 13.5503 1.82617C14.1396 2.39258 14.5981 3.05347 14.9263 3.80859C15.2544 4.56372 15.4219 5.37769 15.4287 6.25C15.4287 6.823 15.3516 7.37964 15.1978 7.91992C15.0435 8.46021 14.8193 8.96802 14.5244 9.44336C14.23 9.9187 13.8784 10.3516 13.4697 10.7422C13.0615 11.1328 12.5962 11.468 12.0737 11.748ZM3.85693 6.25C3.85693 6.94019 3.99121 7.58789 4.25879 8.19336C4.52686 8.79883 4.89502 9.32617 5.36377 9.77539C5.83252 10.2246 6.37842 10.5828 7.00098 10.8496C7.62402 11.1165 8.29004 11.25 9 11.25C9.70996 11.25 10.376 11.1199 10.999 10.8594C11.6216 10.5989 12.1641 10.241 12.626 9.78516C13.0884 9.32935 13.4565 8.79883 13.731 8.19336C14.0054 7.58789 14.1431 6.94019 14.1431 6.25C14.1431 5.55981 14.0088 4.91211 13.7412 4.30664C13.4731 3.70117 13.105 3.17383 12.6362 2.72461C12.1675 2.27539 11.6216 1.91724 10.999 1.65039C10.376 1.38354 9.70996 1.25 9 1.25C8.29004 1.25 7.62402 1.38013 7.00098 1.64062C6.37842 1.90112 5.83594 2.25903 5.37402 2.71484C4.91162 3.17065 4.54346 3.70117 4.26904 4.30664C3.99463 4.91211 3.85693 5.55981 3.85693 6.25Z" fill="#FFFFFF" fill-opacity="1.000000" fill-rule="nonzero"/>
</svg>
