<svg width="20.000488" height="20.000488" viewBox="0 0 20.0005 20.0005" fill="none" xmlns="http://www.w3.org/2000/svg" xmlns:xlink="http://www.w3.org/1999/xlink">
	<desc>
			Created with Pixso.
	</desc>
	<defs/>
	<path id="Vector" d="M4.56787 1.6604C4.49414 1.56543 4.40137 1.4873 4.29492 1.43115C4.18848 1.375 4.07129 1.34204 3.95166 1.33472C3.83154 1.32715 3.71143 1.34546 3.59863 1.38794C3.48633 1.43042 3.38428 1.49658 3.29932 1.58154L2.00684 2.87549C1.40332 3.48047 1.18066 4.33667 1.44434 5.08789C2.54004 8.19678 4.3208 11.0195 6.6543 13.3479C8.98242 15.6814 11.8057 17.4619 14.9146 18.5579C15.6655 18.8215 16.522 18.5991 17.127 17.9954L18.4194 16.7029C18.5044 16.6179 18.5703 16.5159 18.6128 16.4033C18.6558 16.291 18.6738 16.1707 18.6665 16.0508C18.6587 15.9307 18.626 15.8137 18.5698 15.7073C18.5137 15.6011 18.4355 15.5078 18.3408 15.4341L15.457 13.1917C15.3555 13.113 15.2373 13.0586 15.1118 13.0322C14.9863 13.0059 14.8564 13.0081 14.7319 13.0391L11.9941 13.7229C11.6289 13.8135 11.2461 13.8083 10.8833 13.708C10.5205 13.6074 10.1899 13.415 9.92285 13.1492L6.85303 10.0779C6.58691 9.81128 6.39453 9.48071 6.29346 9.11768C6.19287 8.75488 6.1875 8.37207 6.27832 8.00659L6.96289 5.26904C6.99414 5.14453 6.99658 5.01465 6.97021 4.88916C6.94336 4.76367 6.88916 4.64551 6.81055 4.54419L4.56787 1.6604ZM2.35547 0.63916C2.57422 0.42041 2.83691 0.250488 3.12646 0.141113C3.41602 0.0314941 3.7251 -0.0151367 4.03418 0.00415039C4.34277 0.0234375 4.64404 0.108154 4.91748 0.25293C5.19092 0.397461 5.43066 0.598633 5.62061 0.842773L7.86328 3.72534C8.27441 4.25415 8.41943 4.94287 8.25684 5.59277L7.57324 8.33032C7.53809 8.47217 7.54004 8.62061 7.5791 8.76147C7.61816 8.9021 7.69238 9.03052 7.79541 9.13403L10.8667 12.2053C10.9707 12.3086 11.0991 12.3833 11.2402 12.4224C11.3813 12.4612 11.5298 12.4631 11.6719 12.428L14.4082 11.7441C14.729 11.6643 15.0635 11.6584 15.3872 11.7266C15.7104 11.7947 16.0142 11.9353 16.2754 12.1379L19.1582 14.3804C20.1943 15.1865 20.2896 16.7178 19.3618 17.644L18.0693 18.9365C17.1445 19.8616 15.7617 20.2678 14.4731 19.8142C11.1738 18.6548 8.17871 16.7664 5.71045 14.2891C3.2334 11.8213 1.34521 8.82666 0.185547 5.52783C-0.26709 4.24048 0.13916 2.85669 1.06445 1.93164L2.35547 0.63916Z" fill="#FFFFFF" fill-opacity="1.000000" fill-rule="nonzero"/>
</svg>
